<?xml version="1.0" encoding="UTF-8" standalone="no"?>
<!DOCTYPE svg PUBLIC "-//W3C//DTD SVG 1.1//EN" "http://www.w3.org/Graphics/SVG/1.1/DTD/svg11.dtd">
<svg xmlns="http://www.w3.org/2000/svg" version="1.1" viewBox="0.00 0.00 512.00 512.00">
<path d="
  M 512.00 109.06
  L 512.00 114.60
  Q 509.61 137.10 489.98 150.19
  Q 390.59 216.46 291.20 282.71
  Q 279.59 290.45 276.94 291.77
  C 261.64 299.36 243.54 297.94 229.32 288.44
  Q 127.80 220.68 26.25 152.98
  Q 15.26 145.65 11.31 141.21
  Q 1.57 130.26 0.00 114.62
  L 0.00 108.90
  C 1.58 87.58 16.45 69.63 37.32 65.32
  Q 42.49 64.26 57.25 64.26
  Q 260.75 64.26 464.25 64.25
  C 490.13 64.25 509.81 83.22 512.00 109.06
  Z"
/>
<path d="
  M 512.00 171.71
  L 512.00 403.08
  C 509.70 428.92 490.12 447.73 464.25 447.73
  Q 260.75 447.74 57.25 447.74
  Q 42.50 447.74 37.32 446.67
  C 16.44 442.37 1.58 424.47 0.00 403.13
  L 0.00 171.53
  Q 106.38 242.47 212.68 313.34
  C 235.48 328.54 264.12 330.96 288.92 319.25
  Q 294.26 316.73 306.01 308.90
  Q 406.37 242.02 506.70 175.11
  C 508.09 174.18 510.09 172.59 512.00 171.71
  Z"
/>
</svg>
