<?xml version="1.0" encoding="UTF-8" standalone="no"?>
<!DOCTYPE svg PUBLIC "-//W3C//DTD SVG 1.1//EN" "http://www.w3.org/Graphics/SVG/1.1/DTD/svg11.dtd">
<svg xmlns="http://www.w3.org/2000/svg" version="1.1" viewBox="0.00 0.00 512.00 512.00">
<path d="
  M 248.55 0.00
  L 263.54 0.00
  Q 322.73 1.99 372.91 28.09
  Q 415.47 50.23 446.08 84.42
  Q 508.19 153.79 512.00 248.59
  L 512.00 263.54
  Q 509.95 323.33 483.21 374.17
  Q 460.57 417.20 425.47 447.96
  Q 356.52 508.37 263.25 512.00
  L 248.65 512.00
  C 178.84 509.64 112.86 479.54 66.65 428.36
  Q 3.94 358.91 0.00 263.71
  L 0.00 248.16
  Q 3.49 160.34 58.06 93.55
  C 104.64 36.52 174.06 2.54 248.55 0.00
  Z
  M 472.02 255.99
  A 216.02 216.02 0.0 0 0 256.00 39.97
  A 216.02 216.02 0.0 0 0 39.98 255.99
  A 216.02 216.02 0.0 0 0 256.00 472.01
  A 216.02 216.02 0.0 0 0 472.02 255.99
  Z"
/>
<rect x="-19.97" y="-84.26" transform="translate(256.00,213.28) rotate(0.1)" width="39.94" height="168.52" rx="19.48"/>
<circle cx="256.00" cy="349.15" r="26.98"/>
</svg>
