<?xml version="1.0" encoding="UTF-8" standalone="no"?>
<!DOCTYPE svg PUBLIC "-//W3C//DTD SVG 1.1//EN" "http://www.w3.org/Graphics/SVG/1.1/DTD/svg11.dtd">
<svg xmlns="http://www.w3.org/2000/svg" version="1.1" viewBox="0.00 0.00 512.00 512.00">
<path d="
  M 0.00 250.19
  L 0.00 243.41
  Q 0.85 236.57 3.95 230.76
  Q 6.33 226.30 12.13 220.73
  Q 50.62 183.68 95.57 155.08
  A 0.15 0.14 50.3 0 0 95.59 154.85
  Q 69.96 129.01 44.10 103.52
  Q 36.35 95.89 34.39 92.09
  C 27.90 79.51 33.32 63.46 46.85 58.07
  C 56.10 54.38 66.48 56.34 73.55 63.41
  Q 255.75 245.61 423.57 413.20
  Q 428.07 417.69 430.00 423.22
  C 437.31 444.10 414.81 463.59 395.22 452.80
  Q 391.49 450.75 386.33 445.55
  Q 354.02 412.97 322.07 381.22
  A 0.74 0.73 -30.0 0 0 321.36 381.03
  Q 269.20 394.98 218.22 386.84
  C 166.76 378.62 119.11 355.41 76.35 325.83
  Q 43.69 303.24 10.72 271.76
  C 4.54 265.86 0.97 258.69 0.00 250.19
  Z
  M 259.20 318.94
  C 216.85 320.48 182.18 286.27 184.00 243.65
  A 1.07 1.06 -66.5 0 0 183.69 242.85
  L 157.76 216.95
  A 0.28 0.28 0.0 0 0 157.29 217.07
  C 134.00 296.64 206.58 368.42 285.81 345.62
  A 0.30 0.30 0.0 0 0 285.94 345.12
  L 260.16 319.32
  Q 259.76 318.92 259.20 318.94
  Z"
/>
<path d="
  M 512.00 244.63
  L 512.00 249.05
  C 511.26 258.19 507.61 265.65 501.01 272.00
  Q 456.44 314.86 408.50 343.53
  A 0.71 0.71 0.0 0 1 407.64 343.43
  L 351.49 287.27
  A 0.90 0.90 0.0 0 1 351.30 286.28
  C 365.58 252.18 359.90 213.05 337.66 183.99
  Q 319.55 160.33 291.15 150.03
  C 266.52 141.10 241.25 141.93 216.54 151.53
  A 0.83 0.82 56.4 0 1 215.67 151.35
  L 180.54 116.21
  Q 180.01 115.68 180.72 115.47
  Q 260.74 90.76 340.38 118.43
  C 401.54 139.68 455.76 177.79 501.77 222.48
  Q 510.97 231.41 512.00 244.63
  Z"
/>
<path d="
  M 241.14 176.25
  C 271.52 170.19 301.59 183.03 317.61 209.36
  Q 331.96 232.96 326.70 261.53
  A 0.38 0.38 0.0 0 1 326.06 261.73
  L 241.01 176.68
  A 0.25 0.25 0.0 0 1 241.14 176.25
  Z"
/>
</svg>
