<svg width="17" height="16" viewBox="0 0 17 16" fill="none" xmlns="http://www.w3.org/2000/svg">
<path d="M16.4443 5.294V6.04834C16.4347 6.07732 16.4226 6.10588 16.4163 6.13528C16.3395 6.50784 16.2832 6.88627 16.1835 7.25252C16.0445 7.7641 15.8104 8.23703 15.5295 8.67636C13.9333 7.87624 12.3759 7.90648 10.9967 9.06194C9.37914 10.4173 9.14044 12.1486 9.94001 14.0769C9.46845 14.415 8.99146 14.7598 8.50904 15.0971C8.47649 15.1198 8.39094 15.1017 8.35088 15.0727C7.84133 14.7099 7.33179 14.3465 6.82976 13.9736C5.41715 12.924 4.05002 11.8193 2.82979 10.5425C2.04315 9.71926 1.34373 8.83513 0.901791 7.7662C0.541647 6.89425 0.34384 5.99374 0.49616 5.05501C0.816241 3.08473 1.87414 1.6256 3.65482 0.754076C5.08162 0.056014 6.44958 0.226959 7.68526 1.26187C7.94024 1.47524 8.19146 1.69323 8.44895 1.91247C8.72521 1.676 8.98686 1.44458 9.25603 1.22281C10.2522 0.401265 11.3823 0.109776 12.6125 0.515088C14.5931 1.16737 15.7745 2.59373 16.3145 4.5888C16.3767 4.81854 16.4017 5.05879 16.4443 5.294Z" fill="white"/>
<path d="M16.4446 12.4934C16.3623 12.7832 16.3085 13.0852 16.1933 13.3611C15.6921 14.5594 14.4452 15.2772 13.159 15.1285C11.872 14.9798 10.8262 13.9865 10.5996 12.6975C10.305 11.0216 11.4606 9.44154 13.1344 9.23112C14.7215 9.03161 16.1963 10.1635 16.4141 11.7483C16.4183 11.7777 16.4341 11.805 16.4446 11.8335V12.4938V12.4934ZM12.7559 11.4164C12.4934 11.4295 12.2543 11.44 12.0152 11.453C11.8002 11.4652 11.6317 11.5966 11.6029 11.8108C11.5753 12.0166 11.5607 12.2288 11.5795 12.4346C11.6095 12.763 11.7752 12.8945 12.1066 12.9071C12.3227 12.9155 12.5389 12.9289 12.7572 12.9403C12.768 13.1885 12.7776 13.4186 12.7885 13.6484C12.7989 13.8664 12.9216 14.0415 13.1361 14.0688C13.3702 14.0987 13.6122 14.1054 13.8463 14.0798C14.0942 14.0525 14.2178 13.879 14.2311 13.624C14.2428 13.396 14.2553 13.1679 14.2678 12.9369C14.5107 12.9251 14.7394 12.9146 14.9677 12.9033C15.1834 12.8928 15.362 12.7697 15.3887 12.5568C15.4184 12.3161 15.4234 12.0675 15.3979 11.8264C15.3729 11.5878 15.198 11.4639 14.9518 11.4509C14.7248 11.4387 14.4978 11.4265 14.2662 11.4143C14.2541 11.1741 14.242 10.9448 14.2303 10.7154C14.2186 10.4815 14.0917 10.3043 13.863 10.2778C13.6289 10.2509 13.3865 10.2513 13.1524 10.2791C12.9253 10.3059 12.7985 10.4874 12.7876 10.7205C12.7772 10.9494 12.7668 11.1783 12.7559 11.416V11.4164Z" fill="white"/>
</svg>
