<?xml version="1.0" encoding="UTF-8" standalone="no"?>
<!DOCTYPE svg PUBLIC "-//W3C//DTD SVG 1.1//EN" "http://www.w3.org/Graphics/SVG/1.1/DTD/svg11.dtd">
<svg xmlns="http://www.w3.org/2000/svg" version="1.1" viewBox="0.00 0.00 512.00 512.00">
<path d="
  M 268.21 400.96
  C 166.26 405.45 69.35 352.40 18.32 264.14
  C 14.13 256.91 16.12 250.81 20.49 243.66
  C 88.44 132.26 224.49 82.83 347.97 126.60
  C 409.78 148.51 460.47 191.30 493.66 247.32
  Q 496.59 252.26 495.77 258.18
  Q 495.26 261.87 491.59 267.87
  Q 449.92 336.05 379.06 372.00
  C 344.61 389.48 306.31 399.29 268.21 400.96
  Z
  M 355.98 255.99
  A 99.98 99.98 0.0 0 0 256.00 156.01
  A 99.98 99.98 0.0 0 0 156.02 255.99
  A 99.98 99.98 0.0 0 0 256.00 355.97
  A 99.98 99.98 0.0 0 0 355.98 255.99
  Z"
/>
<circle cx="256.00" cy="255.99" r="68.00"/>
</svg>
