<svg width="11" height="13" viewBox="0 0 11 13" fill="none" xmlns="http://www.w3.org/2000/svg">
<path d="M9.89022 7.01277C10.0709 7.23928 10.1782 7.52062 10.1782 7.82514C10.1782 8.27632 9.94264 8.67642 9.58158 8.92279C9.76231 9.14929 9.86957 9.43063 9.86957 9.73518C9.86957 10.1864 9.63432 10.5867 9.27326 10.833C9.45382 11.0595 9.56093 11.3408 9.56093 11.6452C9.56093 12.3922 8.91582 13 8.12285 13L3.59562 13C2.84993 13 2.11785 12.8749 1.41974 12.6283L0.245117 12.2133L0.245116 5.21684C1.62163 3.82141 2.88153 2.4895 3.10843 2.14737L3.10843 0.574798C3.10843 0.257853 3.3821 6.95306e-07 3.71852 6.67598e-07C5.10593 5.53328e-07 6.2347 1.06342 6.2347 2.37052L6.2347 3.07987L5.77976 4.56032L9.04873 4.56032C9.84167 4.56032 10.4868 5.16809 10.4868 5.91513C10.4868 6.3663 10.2513 6.76641 9.89022 7.01277Z" fill="#FFC527"/>
</svg>
