<svg width="14" height="14" viewBox="0 0 14 14" xmlns="http://www.w3.org/2000/svg">
<path d="M2.58594 9.36719C4.1224 8.74219 5.59375 8.42969 7 8.42969C8.40625 8.42969 9.86458 8.74219 11.375 9.36719C12.9115 9.96615 13.6797 10.7604 13.6797 11.75V13.4297H0.320312V11.75C0.320312 10.7604 1.07552 9.96615 2.58594 9.36719ZM9.34375 5.77344C8.69271 6.42448 7.91146 6.75 7 6.75C6.08854 6.75 5.30729 6.42448 4.65625 5.77344C4.00521 5.1224 3.67969 4.34115 3.67969 3.42969C3.67969 2.51823 4.00521 1.73698 4.65625 1.08594C5.30729 0.408854 6.08854 0.0703125 7 0.0703125C7.91146 0.0703125 8.69271 0.408854 9.34375 1.08594C9.99479 1.73698 10.3203 2.51823 10.3203 3.42969C10.3203 4.34115 9.99479 5.1224 9.34375 5.77344Z" fill="#9A9EA7"/>
</svg>
